<svg xmlns="http://www.w3.org/2000/svg" xmlns:xlink="http://www.w3.org/1999/xlink" width="200" height="200" viewBox="0 0 200 200"><rect width="100%" height="100%" fill="#DDDDDD"/><path d="M46.69 106.66L51.70 106.66Q52.24 106.66 52.55 106.96Q52.87 107.26 52.87 107.76L52.87 107.76L52.87 109.76L39.48 109.76L39.48 108.65Q39.48 108.32 39.62 107.94Q39.76 107.57 40.07 107.28L40.07 107.28L46 101.34Q46.74 100.58 47.33 99.89Q47.92 99.20 48.31 98.53Q48.70 97.85 48.91 97.16Q49.12 96.46 49.12 95.69L49.12 95.69Q49.12 94.99 48.92 94.46Q48.71 93.92 48.34 93.56Q47.97 93.20 47.45 93.01Q46.93 92.83 46.28 92.83L46.28 92.83Q45.69 92.83 45.18 93.00Q44.68 93.17 44.29 93.47Q43.89 93.78 43.62 94.18Q43.35 94.59 43.22 95.07L43.22 95.07Q42.99 95.69 42.63 95.90Q42.26 96.10 41.57 95.99L41.57 95.99L39.82 95.68Q40.02 94.28 40.60 93.22Q41.18 92.16 42.05 91.45Q42.92 90.74 44.05 90.38Q45.18 90.02 46.47 90.02L46.47 90.02Q47.82 90.02 48.94 90.42Q50.06 90.82 50.86 91.55Q51.66 92.28 52.10 93.30Q52.55 94.33 52.55 95.59L52.55 95.59Q52.55 96.67 52.23 97.58Q51.91 98.50 51.38 99.34Q50.85 100.18 50.13 100.96Q49.42 101.74 48.63 102.55L48.63 102.55L44.23 107.05Q44.87 106.86 45.49 106.76Q46.12 106.66 46.69 106.66L46.69 106.66ZM69.10 100L69.10 100Q69.10 102.55 68.55 104.43Q68.00 106.32 67.04 107.55Q66.07 108.77 64.76 109.38Q63.44 109.98 61.92 109.98L61.92 109.98Q60.39 109.98 59.09 109.38Q57.79 108.77 56.83 107.55Q55.87 106.32 55.33 104.43Q54.79 102.55 54.79 100L54.79 100Q54.79 97.43 55.33 95.56Q55.87 93.68 56.83 92.45Q57.79 91.22 59.09 90.62Q60.39 90.02 61.92 90.02L61.92 90.02Q63.44 90.02 64.76 90.62Q66.07 91.22 67.04 92.45Q68.00 93.68 68.55 95.56Q69.10 97.43 69.10 100ZM65.66 100L65.66 100Q65.66 97.88 65.35 96.49Q65.03 95.10 64.52 94.28Q64.00 93.45 63.32 93.12Q62.65 92.79 61.92 92.79L61.92 92.79Q61.20 92.79 60.53 93.12Q59.86 93.45 59.35 94.28Q58.84 95.10 58.53 96.49Q58.23 97.88 58.23 100L58.23 100Q58.23 102.12 58.53 103.51Q58.84 104.90 59.35 105.72Q59.86 106.55 60.53 106.88Q61.20 107.21 61.92 107.21L61.92 107.21Q62.65 107.21 63.32 106.88Q64.00 106.55 64.52 105.72Q65.03 104.90 65.35 103.51Q65.66 102.12 65.66 100ZM84.76 100L84.76 100Q84.76 102.55 84.21 104.43Q83.66 106.32 82.70 107.55Q81.73 108.77 80.42 109.38Q79.10 109.98 77.58 109.98L77.58 109.98Q76.05 109.98 74.75 109.38Q73.45 108.77 72.49 107.55Q71.53 106.32 70.99 104.43Q70.45 102.55 70.45 100L70.45 100Q70.45 97.43 70.99 95.56Q71.53 93.68 72.49 92.45Q73.45 91.22 74.75 90.62Q76.05 90.02 77.58 90.02L77.58 90.02Q79.10 90.02 80.42 90.62Q81.73 91.22 82.70 92.45Q83.66 93.68 84.21 95.56Q84.76 97.43 84.76 100ZM81.32 100L81.32 100Q81.32 97.88 81.01 96.49Q80.69 95.10 80.18 94.28Q79.66 93.45 78.98 93.12Q78.31 92.79 77.58 92.79L77.58 92.79Q76.86 92.79 76.19 93.12Q75.52 93.45 75.01 94.28Q74.50 95.10 74.19 96.49Q73.89 97.88 73.89 100L73.89 100Q73.89 102.12 74.19 103.51Q74.50 104.90 75.01 105.72Q75.52 106.55 76.19 106.88Q76.86 107.21 77.58 107.21L77.58 107.21Q78.31 107.21 78.98 106.88Q79.66 106.55 80.18 105.72Q80.69 104.90 81.01 103.51Q81.32 102.12 81.32 100ZM106.20 105.29L104.43 107.03L99.85 102.46L95.23 107.06L93.47 105.32L98.08 100.69L93.68 96.29L95.44 94.53L99.84 98.93L104.21 94.56L105.99 96.31L101.61 100.70L106.20 105.29ZM122.45 106.66L127.46 106.66Q128.00 106.66 128.32 106.96Q128.63 107.26 128.63 107.76L128.63 107.76L128.63 109.76L115.24 109.76L115.24 108.65Q115.24 108.32 115.38 107.94Q115.52 107.57 115.84 107.28L115.84 107.28L121.76 101.34Q122.50 100.58 123.09 99.89Q123.68 99.20 124.07 98.53Q124.46 97.85 124.67 97.16Q124.88 96.46 124.88 95.69L124.88 95.69Q124.88 94.99 124.68 94.46Q124.48 93.92 124.10 93.56Q123.73 93.20 123.21 93.01Q122.69 92.83 122.05 92.83L122.05 92.83Q121.45 92.83 120.95 93.00Q120.44 93.17 120.05 93.47Q119.66 93.78 119.39 94.18Q119.12 94.59 118.98 95.07L118.98 95.07Q118.75 95.69 118.39 95.90Q118.02 96.10 117.33 95.99L117.33 95.99L115.58 95.68Q115.78 94.28 116.36 93.22Q116.94 92.16 117.81 91.45Q118.68 90.74 119.81 90.38Q120.94 90.02 122.23 90.02L122.23 90.02Q123.58 90.02 124.70 90.42Q125.83 90.82 126.62 91.55Q127.42 92.28 127.86 93.30Q128.31 94.33 128.31 95.59L128.31 95.59Q128.31 96.67 127.99 97.58Q127.67 98.50 127.14 99.34Q126.61 100.18 125.89 100.96Q125.18 101.74 124.39 102.55L124.39 102.55L119.99 107.05Q120.63 106.86 121.26 106.76Q121.88 106.66 122.45 106.66L122.45 106.66ZM144.86 100L144.86 100Q144.86 102.55 144.31 104.43Q143.77 106.32 142.80 107.55Q141.84 108.77 140.52 109.38Q139.20 109.98 137.68 109.98L137.68 109.98Q136.15 109.98 134.85 109.38Q133.55 108.77 132.59 107.55Q131.63 106.32 131.09 104.43Q130.55 102.55 130.55 100L130.55 100Q130.55 97.43 131.09 95.56Q131.63 93.68 132.59 92.45Q133.55 91.22 134.85 90.62Q136.15 90.02 137.68 90.02L137.68 90.02Q139.20 90.02 140.52 90.62Q141.84 91.22 142.80 92.45Q143.77 93.68 144.31 95.56Q144.86 97.43 144.86 100ZM141.42 100L141.42 100Q141.42 97.88 141.11 96.49Q140.80 95.10 140.28 94.28Q139.76 93.45 139.08 93.12Q138.41 92.79 137.68 92.79L137.68 92.79Q136.96 92.79 136.29 93.12Q135.63 93.45 135.11 94.28Q134.60 95.10 134.30 96.49Q133.99 97.88 133.99 100L133.99 100Q133.99 102.12 134.30 103.51Q134.60 104.90 135.11 105.72Q135.63 106.55 136.29 106.88Q136.96 107.21 137.68 107.21L137.68 107.21Q138.41 107.21 139.08 106.88Q139.76 106.55 140.28 105.72Q140.80 104.90 141.11 103.51Q141.42 102.12 141.42 100ZM160.52 100L160.52 100Q160.52 102.55 159.97 104.43Q159.43 106.32 158.46 107.55Q157.50 108.77 156.18 109.38Q154.86 109.98 153.34 109.98L153.34 109.98Q151.81 109.98 150.51 109.38Q149.21 108.77 148.25 107.55Q147.29 106.32 146.75 104.43Q146.21 102.55 146.21 100L146.21 100Q146.21 97.43 146.75 95.56Q147.29 93.68 148.25 92.45Q149.21 91.22 150.51 90.62Q151.81 90.02 153.34 90.02L153.34 90.02Q154.86 90.02 156.18 90.62Q157.50 91.22 158.46 92.45Q159.43 93.68 159.97 95.56Q160.52 97.43 160.52 100ZM157.08 100L157.08 100Q157.08 97.88 156.77 96.49Q156.46 95.10 155.94 94.28Q155.42 93.45 154.74 93.12Q154.07 92.79 153.34 92.79L153.34 92.79Q152.62 92.79 151.95 93.12Q151.29 93.45 150.77 94.28Q150.26 95.10 149.96 96.49Q149.65 97.88 149.65 100L149.65 100Q149.65 102.12 149.96 103.51Q150.26 104.90 150.77 105.72Q151.29 106.55 151.95 106.88Q152.62 107.21 153.34 107.21L153.34 107.21Q154.07 107.21 154.74 106.88Q155.42 106.55 155.94 105.72Q156.46 104.90 156.77 103.51Q157.08 102.12 157.08 100Z" fill="#999999"/></svg>